<svg width="31" height="34" viewBox="0 0 31 34" fill="none" xmlns="http://www.w3.org/2000/svg">
<path d="M22.2059 3.23175C22.2059 2.11952 22.2059 1.09124 22.2059 0C23.3247 0 24.359 0 25.52 0C25.52 1.07026 25.52 2.11952 25.52 3.31569C26.1744 3.31569 26.7443 3.29471 27.2932 3.31569C29.1508 3.37865 30.6073 4.7427 30.6073 6.58941C30.6284 14.5009 30.6284 22.3914 30.6073 30.3029C30.6073 32.0867 29.1508 33.5137 27.3565 33.5137C19.3983 33.5347 11.4613 33.5347 3.50313 33.5137C1.64552 33.5137 0.25231 32.0657 0.231201 30.198C0.231201 22.3704 0.231201 14.5219 0.25231 6.69434C0.25231 4.72171 1.68774 3.35766 3.672 3.31569C4.15751 3.29471 4.64302 3.31569 5.25519 3.31569C5.25519 2.20347 5.25519 1.1542 5.25519 0.0209854C6.4373 0.0209854 7.49276 0.0209854 8.65377 0.0209854C8.65377 1.09124 8.65377 2.11952 8.65377 3.23175C13.1711 3.23175 17.6041 3.23175 22.2059 3.23175ZM3.69311 11.7308C3.69311 17.8586 3.69311 23.9653 3.69311 30.0931C11.5457 30.0931 19.3561 30.0931 27.1665 30.0931C27.1665 23.9233 27.1665 17.8376 27.1665 11.7308C19.3139 11.7308 11.5457 11.7308 3.69311 11.7308Z" fill="#E5E5E5"/>
<path d="M15.472 26.7144C15.472 23.9653 15.472 21.2582 15.472 18.4671C18.2585 18.4671 21.0027 18.4671 23.8102 18.4671C23.8102 21.1952 23.8102 23.9234 23.8102 26.7144C21.0871 26.7144 18.3429 26.7144 15.472 26.7144Z" fill="#E5E5E5"/>
</svg>
