<svg width="32" height="32" viewBox="0 0 32 32" fill="none" xmlns="http://www.w3.org/2000/svg">
<path fill-rule="evenodd" clip-rule="evenodd" d="M16 32C24.8366 32 32 24.8366 32 16C32 7.16344 24.8366 0 16 0C7.16344 0 0 7.16344 0 16C0 24.8366 7.16344 32 16 32ZM14.3657 19.7454H18.1574L18.7546 5.92593H13.7685L14.3657 19.7454ZM14.3657 22.3704C13.875 22.8056 13.6296 23.3657 13.6296 24.0509C13.6296 24.7361 13.875 25.3009 14.3657 25.7454C14.8657 26.1806 15.4861 26.3981 16.2269 26.3981C16.9676 26.3981 17.5833 26.1806 18.0741 25.7454C18.5741 25.3009 18.8241 24.7361 18.8241 24.0509C18.8241 23.3657 18.5741 22.8056 18.0741 22.3704C17.5833 21.9259 16.9676 21.7037 16.2269 21.7037C15.4861 21.7037 14.8657 21.9259 14.3657 22.3704Z" fill="white" fill-opacity="0.73"/>
</svg>
