<svg width="22" height="30" viewBox="0 0 22 30" fill="none" xmlns="http://www.w3.org/2000/svg">
<path d="M11.3534 30C8.41979 26.692 5.88367 23.2905 3.78285 19.59C2.53372 17.4034 1.45492 15.1606 0.981761 12.6936C0.167931 8.41378 1.49277 4.82543 4.99413 2.20891C8.51442 -0.407596 12.4132 -0.706626 16.2931 1.3492C20.2109 3.40503 22.0846 6.8065 21.8764 11.1798C21.8196 12.5254 21.4411 13.8898 20.949 15.1606C18.8482 20.7301 15.2711 25.365 11.3534 30ZM11.3155 6.8065C9.23362 6.8065 7.53025 8.48854 7.54918 10.5444C7.54918 12.6002 9.25254 14.2822 11.3344 14.2822C13.4163 14.2822 15.1197 12.6002 15.1197 10.5444C15.1008 8.48854 13.4163 6.8065 11.3155 6.8065Z" fill="#E5E5E5"/>
</svg>
