<svg width="155" height="155" viewBox="0 0 155 155" fill="none" xmlns="http://www.w3.org/2000/svg">
<ellipse cx="77.4223" cy="77.5" rx="77.4223" ry="77.5" fill="white"/>
<path fill-rule="evenodd" clip-rule="evenodd" d="M141.198 77.4999C141.198 112.68 112.679 141.199 77.4994 141.199C42.3196 141.199 13.8008 112.68 13.8008 77.4999C13.8008 42.3201 42.3196 13.8013 77.4994 13.8013C112.679 13.8013 141.198 42.3201 141.198 77.4999ZM60.089 108.5V102.767H74.3151V97.0342H37.1575C37.2637 79.9418 37.2637 62.8493 37.2637 45.6507H117.312V97.0342H80.1541V102.767H94.3801V108.5H60.089ZM42.9966 91.3014H111.579V51.2774H42.9966V91.3014ZM102.342 81.322C102.236 81.322 100.431 81.5343 99.263 82.4898C98.4137 83.233 98.3075 84.2946 98.2014 85.4624L55.948 85.2501C56.3726 84.1885 55.948 83.0207 55.2048 82.2775C54.2493 81.4282 53.4 81.2159 52.0199 81.322L52.126 59.983C52.0907 59.983 52.185 59.9712 52.3423 59.9515C52.6569 59.9122 53.2231 59.8414 53.5062 59.7706C54.9925 59.4522 55.7356 58.3905 56.4788 56.6919C56.6121 56.4253 56.6617 56.1587 56.7064 55.9184C56.7329 55.7759 56.7578 55.6426 56.7973 55.5241L98.3075 55.7364C98.626 58.2843 100.112 59.5583 102.448 59.8768L102.342 81.322ZM62.424 68.7946V71.0241L70.2802 70.8117V68.5823L62.424 68.7946ZM62.424 64.3357V66.5652L79.3041 66.2467V64.0172L62.424 64.3357ZM88.2219 59.1337C88.2219 59.7706 88.3281 60.0891 88.7528 60.3015C89.3897 60.62 90.1329 60.0891 90.1329 59.346V56.5857H88.2219V59.1337ZM88.2219 65.2912C88.2219 65.822 88.2219 66.1405 88.5404 66.3528C89.1774 66.7775 90.0267 66.2467 90.1329 65.5035V63.8049C90.1329 63.1679 89.7082 62.8494 89.0713 62.8494C88.1533 62.9412 88.1878 64.0649 88.214 64.9164C88.218 65.0496 88.2219 65.1763 88.2219 65.2912ZM88.1158 71.2364C88.1158 71.7672 88.1158 72.298 88.6466 72.5104C89.2836 72.8289 90.1329 72.4042 90.0267 71.5549V69.8563C90.0267 69.3254 89.6021 68.9008 89.0713 68.9008C88.5404 68.9008 88.1158 69.3254 88.1158 69.8563V71.2364ZM88.9651 78.3494H89.2836C89.7082 78.3494 90.1329 77.9248 90.1329 77.5001V75.8015C90.1329 75.3768 89.7082 74.9522 89.2836 74.9522H88.9651C88.5404 74.9522 88.2219 75.2706 88.2219 75.6953V77.6063C88.2219 78.0309 88.5404 78.3494 88.9651 78.3494ZM88.2219 81.322C87.9034 82.2775 88.1158 84.507 88.1158 84.507H90.1329V81.5343C90.1329 80.7912 89.1774 80.2604 88.5404 80.7912C88.3281 80.8974 88.2219 81.1097 88.2219 81.322Z" fill="#FFB628" fill-opacity="0.79"/>
</svg>
