<svg width="155" height="155" viewBox="0 0 155 155" fill="none" xmlns="http://www.w3.org/2000/svg">
<ellipse cx="77.4223" cy="77.5" rx="77.4223" ry="77.5" fill="white"/>
<path fill-rule="evenodd" clip-rule="evenodd" d="M141.198 77.4999C141.198 112.68 112.679 141.199 77.4994 141.199C42.3196 141.199 13.8008 112.68 13.8008 77.4999C13.8008 42.3201 42.3196 13.8013 77.4994 13.8013C112.679 13.8013 141.198 42.3201 141.198 77.4999ZM80.3004 105.943C81.6803 102.764 82.9236 97.0442 83.2706 93.4552C83.4603 91.0813 83.1224 85.6141 82.9157 82.2686L82.9156 82.267C82.8621 81.4025 82.8175 80.6798 82.793 80.189H83.2706L86.9719 82.3403L91.9867 88.1965L85.5391 90.4673L90.9121 95.3675L77.0618 113.653L63.2114 95.3675L68.465 90.3478L62.0174 88.1965L66.9128 82.4598L70.6142 80.3085H71.0918C70.853 82.5793 70.3754 90.5868 70.6142 93.5747C70.9724 97.1602 72.2858 103.255 73.7186 106.363L73.7566 106.438L73.7996 106.523L74.6708 90.8257C74.6708 90.3477 75.1484 89.9891 75.626 89.9891H75.8446C74.7805 89.9779 73.9559 89.1462 73.9559 88.1965V87.2404L75.2693 85.3281C75.5081 85.2086 75.6275 85.2086 75.8663 85.2086H78.1349C78.2748 85.2086 78.4147 85.2496 78.5306 85.2836C78.6125 85.3076 78.6825 85.3281 78.7319 85.3281L80.0453 87.1209V88.1965C80.0453 89.1462 79.2208 89.9779 78.1567 89.9891H78.611C79.0886 89.9891 79.5662 90.3477 79.5662 90.8257L80.3004 105.943ZM76.8867 112.117L76.6473 111.809L76.823 112.219L76.8867 112.117ZM89.4748 83.4159L101.057 88.6746C101.534 88.9136 102.012 89.1526 102.251 89.6307L102.012 90.7063L96.3999 116.761V117H76.9378H75.9826H57.4756V116.761L51.8638 90.7063L51.625 89.6307C51.9832 89.2721 52.4608 88.9136 52.9384 88.6746L64.5202 83.4159L59.983 88.9136L66.1918 91.0649L61.5352 95.2479L77.0572 115.685L92.4597 95.1284L87.8032 90.9454L94.0119 88.7941L89.4748 83.4159ZM56.2834 117L50.6716 90.9455C50.4328 91.4236 50.3134 91.9017 50.3134 92.3797L49 117H56.2834ZM97.717 117H105L103.687 92.3796C103.687 91.9015 103.568 91.4235 103.329 90.9454L97.717 117ZM62.1678 56.0254C62.1569 56.0325 62.146 56.0397 62.1353 56.0469L61.4189 54.8517L59.3891 51.3857C57.1205 51.3857 54.4937 48.5174 57.1205 45.888C59.8667 43.0197 66.5531 38 76.8215 38C86.9705 38 93.7762 43.0197 96.5224 45.888C99.0298 48.6369 96.5224 51.5053 94.015 51.1467L91.8659 54.7322L91.8456 54.7659C91.8517 54.7944 91.8576 54.823 91.8634 54.8516L91.147 56.0467C90.9383 55.9075 90.6891 55.8088 90.423 55.7034C90.2323 55.6279 90.033 55.5489 89.8336 55.4491L88.2433 54.8124L88.1647 54.8518L87.4483 55.2103C87.3289 55.2701 87.2394 55.2999 87.1498 55.3298C87.0603 55.3597 86.9707 55.3896 86.8513 55.4493C86.7916 55.4493 86.7618 55.4792 86.7319 55.5091C86.718 55.5231 86.704 55.5371 86.687 55.548C86.7016 55.5545 86.7163 55.5614 86.731 55.5687C86.7907 55.5687 86.8504 55.5986 86.9101 55.6285C86.9698 55.6584 87.0295 55.6882 87.0892 55.6882C87.328 55.8078 87.6862 55.9273 88.0444 56.0468C88.234 56.1281 88.4297 56.2094 88.6288 56.2921C89.3074 56.5741 90.025 56.8723 90.6712 57.2419C90.6712 57.2419 90.6712 57.3615 90.7906 57.3615L91.9846 57.8395L92.4622 57.0029V57.959C92.4622 59.1542 92.3428 60.2298 91.9846 61.425C91.8652 61.5445 91.8652 61.7835 91.9846 61.7835C92.4622 62.8592 92.4622 64.7714 91.9846 66.6837C91.3876 68.9545 90.0742 71.3448 88.522 71.3448H88.1638C88.1638 71.3448 88.0444 71.2253 87.925 71.2253C85.6564 76.2449 81.7162 80.667 76.9402 80.667C72.1642 80.667 68.224 76.2449 65.9555 71.2253C65.9555 71.3448 65.8361 71.3448 65.7167 71.3448H65.3585C63.8063 71.3448 62.4929 68.9545 61.8959 66.6837C61.2989 64.6519 61.2989 62.8592 61.8959 61.7835C61.8959 61.7238 61.866 61.6341 61.8362 61.5445C61.8063 61.4549 61.7765 61.3652 61.7765 61.3055V61.186C61.4183 60.1103 61.2989 59.0347 61.2989 57.8395V56.7639L61.8959 57.72L62.9705 57.1224H63.0899C63.7361 56.7528 64.4537 56.4546 65.1323 56.1727L65.1323 56.1726L65.133 56.1724L65.134 56.1719C65.3325 56.0895 65.5276 56.0084 65.7167 55.9273C66.0749 55.8078 66.4331 55.6882 66.6719 55.5687C66.7007 55.5687 66.7277 55.567 66.7533 55.5639C66.7179 55.5542 66.6953 55.5317 66.6728 55.5091C66.6429 55.4792 66.6131 55.4493 66.5534 55.4493C66.434 55.3896 66.3444 55.3597 66.2549 55.3298C66.1653 55.2999 66.0758 55.2701 65.9564 55.2103L65.24 54.8518L65.1786 54.821C64.712 55.0538 64.0924 55.3578 63.5656 55.5686C63.088 55.6882 62.6104 55.9272 62.2522 56.1662L62.1678 56.0254ZM64.2848 53.1785H64.3661C64.3485 53.1386 64.3219 53.0987 64.282 53.0588L64.3376 53.0032C64.3232 52.982 64.3057 52.9607 64.2845 52.9394L64.3386 52.8853C64.3241 52.8635 64.3063 52.8417 64.2845 52.8199L64.3386 52.7658C64.3241 52.744 64.3063 52.7222 64.2845 52.7004L64.6427 52.3419C64.8815 52.1028 65.1203 51.8937 65.3591 51.6845C65.5979 51.4754 65.8367 51.2662 66.0755 51.0272C68.8217 48.7564 72.6425 46.7246 76.7021 46.7246C80.8811 46.7246 84.5825 48.6369 87.4481 51.0272L87.1862 51.051C87.2742 51.1223 87.3615 51.194 87.4481 51.2662C87.9257 51.6248 88.4033 52.1028 88.8809 52.5809L88.9406 52.6407L88.8809 52.4614L89.2391 52.8199C89.2173 52.8417 89.1995 52.8635 89.1849 52.8853L89.2391 52.9394C89.2168 52.9617 89.1987 52.9839 89.184 53.0062L89.2366 53.0588C89.1826 53.1128 89.1531 53.1668 89.1368 53.2209L89.3587 53.7761L89.5975 54.0151C89.5975 54.0151 89.5975 54.0151 89.5973 54.0151C89.7167 54.1346 89.9555 54.1346 90.0749 54.1346C90.5445 54.1346 90.8987 53.7879 91.0239 53.2081C90.9787 52.6645 90.5256 52.3417 90.0724 52.3417H89.724C89.7215 52.3418 89.7191 52.3419 89.7167 52.3419C89.7166 52.3418 89.7165 52.3418 89.7165 52.3417H89.7142C89.4754 52.1624 89.2664 51.9533 89.0575 51.7441C88.8485 51.535 88.6396 51.3258 88.4008 51.1466V51.2661C85.4158 48.6367 81.2368 46.3659 76.819 46.3659C72.2818 46.3659 68.2222 48.6367 65.2372 51.2661L65.1178 51.3856C64.6402 51.7441 64.1626 52.1027 63.8044 52.5808C63.685 52.4612 63.5656 52.4612 63.4462 52.4612C62.882 52.4612 62.5311 52.8883 62.4943 53.3388C62.5154 53.9118 62.9821 54.2541 63.4487 54.2541C63.6875 54.2541 63.8069 54.2541 63.9262 54.1347C63.9192 54.1345 63.8072 54.1309 63.8072 54.0151C63.9266 54.0151 64.046 53.8956 64.046 53.7761L64.2848 53.1785ZM78.8488 50.2485C78.8363 50.3915 78.778 50.4927 78.7061 50.6172C78.6765 50.6687 78.6445 50.7241 78.6125 50.7882C78.6311 50.7915 78.6498 50.7948 78.6684 50.7982C78.6493 50.8321 78.6297 50.8682 78.61 50.9075C78.6302 50.9111 78.6504 50.9147 78.6706 50.9184C78.6516 50.9521 78.632 50.9881 78.6125 51.0272C78.2543 51.6248 77.6573 51.9833 76.9409 51.9833C76.2245 51.9833 75.5081 51.6248 75.2693 51.0272C75.1499 50.9077 75.0305 50.6687 75.0305 50.4296V49.9516V49.7125C75.1499 48.7564 75.9857 47.9198 77.0603 47.9198C77.3362 47.9198 77.5964 47.975 77.8328 48.0732C78.388 48.3961 78.7709 48.969 78.8488 49.5929V49.8319V50.2485ZM65.8361 66.5642C65.7197 61.6745 66.6231 58.2592 67.7736 55.9866C70.3734 57.0379 73.5379 57.9592 76.7024 57.9592C80.0456 57.9592 83.2693 57.003 85.7767 55.9274C85.8109 55.9103 85.8426 55.8956 85.8723 55.8827C85.8799 55.8971 85.8876 55.912 85.8952 55.9273C86.9698 58.3176 87.925 61.7835 87.925 66.6837C87.9847 66.6239 88.0444 66.594 88.1041 66.5642C88.1638 66.5343 88.2235 66.5044 88.2832 66.4446C86.8504 72.5399 82.3132 79.4718 76.9402 79.4718C72.7612 79.4718 69.0598 75.2888 66.9106 70.5082V70.3887L66.7912 70.0301C66.3137 68.8349 65.9555 67.6398 65.5973 66.4446C65.7167 66.5642 65.7167 66.5642 65.8361 66.5642ZM62.9705 66.4446C63.5675 68.9545 64.8809 70.2691 65.2391 70.1496C64.7615 68.9545 64.4033 67.7593 64.1645 66.4446C63.5675 65.7275 63.0899 64.8909 62.6123 63.9348C62.6123 64.6519 62.7317 65.4885 62.9705 66.4446ZM88.4026 70.1496C88.8802 70.1496 90.0742 68.9545 90.6712 66.4446C90.8377 65.778 90.9462 65.1695 91.037 64.6596C91.0765 64.4381 91.1126 64.2353 91.1488 64.0543C90.6712 64.8909 90.1936 65.7275 89.5966 66.4446C89.5302 66.6662 89.4638 66.8918 89.3967 67.12C89.1015 68.123 88.7917 69.176 88.4026 70.1496Z" fill="#FFB628" fill-opacity="0.79"/>
</svg>
