<svg width="162" height="162" viewBox="0 0 162 162" fill="none" xmlns="http://www.w3.org/2000/svg">
<circle cx="81" cy="81" r="81" fill="#E5E5E5" fill-opacity="0.2"/>
<path fill-rule="evenodd" clip-rule="evenodd" d="M81.7167 149.097C118.93 149.097 149.097 118.93 149.097 81.7168C149.097 44.5036 118.93 14.3363 81.7167 14.3363C44.5035 14.3363 14.3362 44.5036 14.3362 81.7168C14.3362 118.93 44.5035 149.097 81.7167 149.097ZM48.0264 51.3957V111.701H115.126V64.7033H81.4921V51.3957H48.0264ZM108.332 71.666V105.075C99.4041 105.075 90.7008 105.075 81.829 105.132V98.5059H88.174V91.824H81.7728V85.0298H88.1178V78.2356H81.7167V71.666H108.332ZM54.8206 64.5349V58.1337H61.2218V64.5349H54.8206ZM74.6979 64.5349H68.1844V58.1899H74.6979V64.5349ZM61.1656 78.0671H54.7645V71.666H61.1656V78.0671ZM74.6979 77.9548H68.1844V71.6098H74.6979V77.9548ZM54.7645 85.1421H61.2779V91.4871H54.7645V85.1421ZM68.2967 91.5432V85.0298H74.6417V91.5432H68.2967ZM61.2218 104.907H54.7083V98.6182H61.2218V104.907ZM74.6417 98.6182V105.132H68.2967V98.6182H74.6417ZM101.65 78.348V84.7491H95.1928V78.348H101.65ZM101.706 98.2251V91.9363H95.1928V98.2251H101.706Z" fill="white"/>
</svg>
