<svg width="162" height="162" viewBox="0 0 162 162" fill="none" xmlns="http://www.w3.org/2000/svg">
<circle cx="81" cy="81" r="81" fill="#E5E5E5" fill-opacity="0.2"/>
<path fill-rule="evenodd" clip-rule="evenodd" d="M80.9999 149.097C118.213 149.097 148.38 118.93 148.38 81.7168C148.38 44.5036 118.213 14.3363 80.9999 14.3363C43.7867 14.3363 13.6194 44.5036 13.6194 81.7168C13.6194 118.93 43.7867 149.097 80.9999 149.097ZM87.8828 109.11V102.336H90.3624H110.883C115.97 102.294 118.621 99.6358 118.621 94.4916V55.31C118.621 50.1658 115.97 47.4651 110.883 47.4651H51.0743C46.1152 47.4651 43.3791 50.1658 43.3791 55.1385V94.7488C43.3791 99.55 46.1152 102.294 50.9033 102.379H71.8512H74.0315V109.281H67.4906V115.969H94.552V109.11H87.8828ZM50.3903 54.4526H111.738V95.3061H50.3903V54.4526Z" fill="white"/>
</svg>
