<svg width="21" height="18" viewBox="0 0 21 18" fill="none" xmlns="http://www.w3.org/2000/svg">
<path d="M2.002 0C2.27727 0 2.47746 0 2.67766 0C7.68253 0 12.6874 0 17.6923 0C19.2563 0 20.0195 0.764092 20.0195 2.35491C20.0195 3.20668 20.032 4.07098 20.0195 4.92276C20.007 6.17537 19.1812 7.00209 17.9425 7.01461C17.3169 7.02714 16.7038 7.01461 16.0281 7.01461C16.0281 7.99165 16.0281 8.89353 16.0281 9.80793C16.0156 12.3132 14.3265 14.0167 11.8366 14.0292C9.95974 14.0292 8.08291 14.0418 6.20609 14.0292C3.74119 14.0167 2.02703 12.3257 2.02703 9.87056C1.98949 6.60125 2.002 3.35699 2.002 0ZM16.0657 2.0167C16.0657 2.99374 16.0657 3.9833 16.0657 4.97286C16.7163 4.97286 17.3419 4.97286 17.9675 4.97286C17.9675 3.97077 17.9675 2.99374 17.9675 2.0167C17.3169 2.0167 16.7163 2.0167 16.0657 2.0167Z" fill="#E5E5E5"/>
<path d="M17.955 16.0709C17.955 16.7223 17.955 17.3486 17.955 17.9999C11.9616 17.9999 5.99333 17.9999 0 17.9999C0 17.3486 0 16.7348 0 16.0709C5.9683 16.0709 11.9366 16.0709 17.955 16.0709Z" fill="#E5E5E5"/>
</svg>
