<svg width="162" height="162" viewBox="0 0 162 162" fill="none" xmlns="http://www.w3.org/2000/svg">
<circle cx="81" cy="81" r="81" fill="#E5E5E5" fill-opacity="0.2"/>
<path fill-rule="evenodd" clip-rule="evenodd" d="M81 149.097C118.213 149.097 148.381 118.93 148.381 81.7168C148.381 44.5036 118.213 14.3363 81 14.3363C43.7868 14.3363 13.6195 44.5036 13.6195 81.7168C13.6195 118.93 43.7868 149.097 81 149.097ZM85.512 45.7807H76.5336C75.9584 45.921 75.3903 46.0613 74.8222 46.2016C74.254 46.3419 73.6858 46.4823 73.1106 46.6226C66.5171 48.0819 60.8214 51.169 55.9955 55.8837C50.7768 60.9353 47.3538 66.969 45.8948 74.0693C44.2956 81.7869 44.9689 89.28 48.2236 96.4924C51.7308 104.238 57.3142 110.019 64.8336 113.864C69.9401 116.474 75.4113 117.681 81.1631 117.653C89.2436 117.625 96.5105 115.211 102.88 110.3C110.203 104.659 114.776 97.2782 116.431 88.1294C116.506 87.6804 116.631 87.2563 116.755 86.8322C116.818 86.6202 116.88 86.4081 116.936 86.1929V77.2124C116.89 77.023 116.844 76.8344 116.798 76.6462C116.564 75.6915 116.334 74.7498 116.123 73.7886C114.664 67.1936 111.549 61.5246 106.864 56.6695C101.729 51.3935 95.5846 47.9977 88.4019 46.4542C87.7225 46.3183 87.0566 46.1556 86.3949 45.9938C86.1 45.9217 85.806 45.8499 85.512 45.7807ZM64.2164 65.4255C63.1502 70.1122 62.3926 74.9392 62.3365 80.0469H48.1394C48.5042 73.1993 50.7488 67.1936 54.7329 61.8053C57.8754 63.012 60.9617 64.1907 64.2164 65.4255ZM107.285 61.8333C111.297 67.1094 113.513 73.1712 113.934 80.0469H99.7371C99.5968 75.0796 98.9795 70.1964 97.8011 65.4817C100.972 64.2749 104.03 63.0962 107.285 61.8333ZM54.761 101.572C50.7488 96.3241 48.5042 90.2622 48.1114 83.3304H62.2804C62.4487 88.3258 63.0099 93.209 64.2444 97.9237C61.0739 99.1305 58.0157 100.309 54.761 101.572ZM107.313 101.572C104.114 100.337 101.028 99.1585 97.9134 97.9798C98.054 97.1458 98.2091 96.3009 98.3656 95.4478C98.6463 93.9185 98.9318 92.3627 99.1479 90.7954C99.3794 88.9642 99.5319 87.1331 99.6884 85.2545C99.7406 84.6283 99.7932 83.9969 99.8493 83.3585H113.906C113.569 90.2061 111.297 96.2399 107.313 101.572ZM79.2832 67.5584C79.5357 68.5406 79.5918 78.5314 79.2832 80.0469C74.7098 80.0469 70.1084 80.0469 65.3387 80.075C65.4789 75.3041 66.0401 70.6454 67.2466 66.1833C69.6471 66.4464 71.9994 66.7192 74.3375 66.9903C75.9892 67.1818 77.6338 67.3725 79.2832 67.5584ZM88.6684 96.5205C86.6553 96.289 84.6422 96.0574 82.622 95.8189V83.5549C83.604 83.2181 94.4623 83.1059 96.5666 83.3865C97.0155 85.6317 95.7249 95.0612 94.7148 97.2221C92.6947 96.9836 90.6815 96.752 88.6684 96.5205ZM94.799 66.2113C96.0335 70.5893 96.5666 75.2479 96.7349 80.075C91.9932 80.075 87.3918 80.075 82.6782 80.103V67.5865C84.0294 67.4331 85.3872 67.2797 86.755 67.1252C89.3915 66.8274 92.0648 66.5255 94.799 66.2113ZM67.2466 97.194C66.012 92.8161 65.507 88.1574 65.3106 83.3304H79.3674V95.847C75.4113 96.2679 71.4271 96.717 67.2466 97.194ZM82.8184 64.303C82.5098 63.1243 82.4818 50.5235 82.7904 49.008C84.2774 49.3448 85.4558 50.0745 86.522 50.9725C88.0371 52.1793 89.2155 53.6947 90.2537 55.2944C91.8249 57.6798 92.9752 60.2617 93.8731 63.0962C90.1695 63.8259 86.522 64.303 82.8184 64.303ZM79.2271 99.0743C79.5357 100.309 79.5638 112.938 79.2551 114.397C77.7681 114.061 76.5897 113.331 75.4955 112.461C73.9804 111.254 72.8581 109.711 71.7638 108.139C70.7537 106.652 68.6775 102.47 68.2286 100.309C71.876 99.5514 75.5235 99.1305 79.2271 99.0743ZM79.171 48.98C79.5357 50.0464 79.648 61.8895 79.3393 64.303C75.5516 64.2749 71.9322 63.8539 68.2847 63.0681C68.3073 62.9326 68.3162 62.8152 68.3243 62.7087C68.3364 62.5506 68.3466 62.4165 68.3969 62.2823C69.6876 58.6901 71.371 55.3225 73.8962 52.4599C75.0185 51.197 76.3091 50.1306 77.8803 49.4571C78.2489 49.285 78.639 49.156 79.0129 49.0324C79.066 49.0148 79.1187 48.9974 79.171 48.98ZM82.8746 114.425C82.5098 113.359 82.3695 101.544 82.7062 99.1024C86.494 99.1305 90.1134 99.5514 93.7328 100.309C93.7139 100.442 93.7013 100.562 93.6898 100.672C93.6671 100.888 93.6483 101.068 93.5925 101.235C92.3299 104.687 90.7306 107.943 88.3177 110.721C87.1674 112.068 85.8206 113.219 84.1652 113.948C83.7966 114.12 83.4064 114.249 83.0324 114.373C82.9795 114.391 82.9268 114.408 82.8746 114.425ZM56.9214 59.2234C61.0739 54.9015 65.7876 51.8706 71.4552 50.3551C68.5091 53.9473 66.6574 58.0447 65.1142 62.3385C62.2804 61.5527 59.6149 60.6827 56.9214 59.2234ZM90.4501 50.4393C93.8731 50.4954 101.898 55.3225 105.04 59.2795C102.431 60.6827 99.7932 61.6369 96.9313 62.3665C95.3882 58.0447 93.5364 53.9193 90.4501 50.4393ZM71.5113 113.05C65.7876 111.563 61.13 108.476 56.8934 104.182C59.6149 102.723 62.2523 101.797 65.1423 101.039C66.6854 105.361 68.5372 109.486 71.5113 113.05ZM96.9033 101.095C99.7371 101.768 102.374 102.751 105.18 104.154C100.944 108.504 96.258 111.563 90.5623 113.078C93.4803 109.514 95.3882 105.445 96.9033 101.095Z" fill="white"/>
</svg>
